<?xml version="1.0" encoding="UTF-8" standalone="no"?>
<svg
   viewBox="0 0 283.31794 271.678"
   version="1.1"
   id="svg1"
   sodipodi:docname="shishirahmed-logo.svg"
   xml:space="preserve"
   width="283.31796"
   height="271.67801"
   inkscape:version="1.4.4 (dcaf3e7d9e, 2026-05-05)"
   xmlns:inkscape="http://www.inkscape.org/namespaces/inkscape"
   xmlns:sodipodi="http://sodipodi.sourceforge.net/DTD/sodipodi-0.dtd"
   xmlns="http://www.w3.org/2000/svg"
   xmlns:svg="http://www.w3.org/2000/svg"><defs
     id="defs1" /><sodipodi:namedview
     id="namedview1"
     pagecolor="#ffffff"
     bordercolor="#000000"
     borderopacity="0.25"
     inkscape:showpageshadow="2"
     inkscape:pageopacity="0.0"
     inkscape:pagecheckerboard="0"
     inkscape:deskcolor="#d1d1d1"
     showgrid="false"
     inkscape:zoom="1.5901835"
     inkscape:cx="171.99273"
     inkscape:cy="186.45647"
     inkscape:window-width="1920"
     inkscape:window-height="1006"
     inkscape:window-x="0"
     inkscape:window-y="0"
     inkscape:window-maximized="1"
     inkscape:current-layer="svg1" /><!-- SVG created with Arrow, by QuiverAI (https://quiver.ai) --><style
     type="text/css"
     id="style1">.cls-0 {fill:#121212;}
.cls-1 {fill:#FFFFFF;}</style><g
     id="g1"
     inkscape:export-filename="g1.webp"
     inkscape:export-xdpi="300"
     inkscape:export-ydpi="300"
     transform="matrix(3.5669788,0,0,3.4536846,2.4146055,-33.586514)"
     style="fill-rule:nonzero;fill:#ffffff;fill-opacity:1"><path
       class="cls-1"
       d="m 14.977049,48.956407 -7.5000001,16.9 H 22.977049 l 3.3,-7.9 c -4.7,-2.6 -10.5,-4.7 -11.3,-9 z m 30.2,-38.6 h -13.3 l -12.2,28.2 c -1.6,3.9 -1.9,8.3 2.9,11.4 2.2,1.6 11.8,6.5 13.1,7.3 1.4,0.9 2.7,2.3 2.6,4.8 -0.1,2.5 -1.7,3.9 -4,3.9 -2.2,0.1 -6,-0.4 -6,-0.4 l 9.9,22.2 7.6,-16.3 c 1.3,-2.8 1.8,-5.1 1.7,-8.6 0,-3.4 -2,-7.3 -4.7,-9.6 -2.2,-1.9 -6.7,-4 -8.7,-5.3 -1.8,-1.2 -2.4,-3.2 -1.4,-5.7 l 5.6,-14.3 15.8,37.9 h 14.4 z"
       id="path1"
       style="fill:#ffffff;fill-opacity:1;fill-rule:nonzero" /></g></svg>
